<?xml version="1.0" encoding="UTF-8"?>
<svg id="Layer_2" data-name="Layer 2" xmlns="http://www.w3.org/2000/svg" viewBox="0 0 405.5 414.1">
  <defs>
    <style>
      .cls-1 {
        fill: #656a7e;
        fill-rule: evenodd;
        stroke-width: 0px;
      }
    </style>
  </defs>
  <g id="Layer_1-2" data-name="Layer 1">
    <g>
      <path class="cls-1" d="M348.33,114.28c31.57,0,57.17-25.58,57.17-57.14S379.91,0,348.33,0s-57.17,25.58-57.17,57.14,25.6,57.14,57.17,57.14Z"/>
      <path class="cls-1" d="M348.33,264.18c31.57,0,57.17-25.58,57.17-57.14s-25.59-57.14-57.17-57.14-57.17,25.58-57.17,57.14,25.6,57.14,57.17,57.14Z"/>
      <path class="cls-1" d="M348.33,414.1c31.57,0,57.17-25.58,57.17-57.14s-25.59-57.14-57.17-57.14-57.17,25.58-57.17,57.14,25.6,57.14,57.17,57.14Z"/>
      <path class="cls-1" d="M202.75,264.18c31.57,0,57.17-25.58,57.17-57.14s-25.6-57.14-57.17-57.14-57.17,25.58-57.17,57.14,25.6,57.14,57.17,57.14Z"/>
      <path class="cls-1" d="M202.75,414.1c31.57,0,57.17-25.58,57.17-57.14s-25.6-57.14-57.17-57.14-57.17,25.58-57.17,57.14,25.6,57.14,57.17,57.14Z"/>
      <path class="cls-1" d="M57.17,414.1c31.57,0,57.17-25.58,57.17-57.14s-25.6-57.14-57.17-57.14S0,325.41,0,356.96s25.6,57.14,57.17,57.14Z"/>
    </g>
  </g>
</svg>